<svg width="205" height="43" viewBox="0 0 205 43" fill="none" xmlns="http://www.w3.org/2000/svg">
<path d="M37.4 33H34.408V20.196C34.408 17.5267 33.9827 15.5613 33.132 14.3C32.2813 13.0387 31.02 12.408 29.348 12.408C28.468 12.408 27.632 12.5693 26.84 12.892C26.0773 13.2147 25.3587 13.6693 24.684 14.256C24.0387 14.8427 23.4667 15.5467 22.968 16.368C22.4693 17.16 22.088 18.04 21.824 19.008V33H18.832V20.196C18.832 17.468 18.4213 15.488 17.6 14.256C16.7787 13.024 15.5173 12.408 13.816 12.408C12.0853 12.408 10.5453 13.0093 9.196 14.212C7.84667 15.4147 6.87867 16.9987 6.292 18.964V33H3.3V10.076H6.028V15.268C6.96667 13.508 8.19867 12.144 9.724 11.176C11.2493 10.1787 12.936 9.68 14.784 9.68C16.72 9.68 18.26 10.2227 19.404 11.308C20.5773 12.3933 21.296 13.816 21.56 15.576C23.7013 11.6453 26.6493 9.68 30.404 9.68C31.6947 9.68 32.78 9.91467 33.66 10.384C34.5693 10.8533 35.288 11.528 35.816 12.408C36.3733 13.2587 36.7693 14.3 37.004 15.532C37.268 16.7347 37.4 18.084 37.4 19.58V33ZM49.4976 33.44C48.4123 33.44 47.4003 33.264 46.4616 32.912C45.5523 32.5307 44.7456 32.0173 44.0416 31.372C43.3669 30.7267 42.8389 29.9787 42.4576 29.128C42.0763 28.248 41.8856 27.3093 41.8856 26.312C41.8856 25.3147 42.1203 24.3907 42.5896 23.54C43.0589 22.6893 43.7189 21.956 44.5696 21.34C45.4203 20.724 46.4323 20.2547 47.6056 19.932C48.7789 19.58 50.0696 19.404 51.4776 19.404C52.6509 19.404 53.8389 19.5067 55.0416 19.712C56.2443 19.9173 57.3149 20.2107 58.2536 20.592V18.524C58.2536 16.5 57.6816 14.9013 56.5376 13.728C55.3936 12.5253 53.8096 11.924 51.7856 11.924C50.6123 11.924 49.4096 12.1587 48.1776 12.628C46.9456 13.0973 45.6989 13.772 44.4376 14.652L43.3816 12.672C46.3443 10.6773 49.2189 9.68 52.0056 9.68C54.8803 9.68 57.1389 10.4867 58.7816 12.1C60.4243 13.7133 61.2456 15.9427 61.2456 18.788V29.128C61.2456 29.9493 61.6123 30.36 62.3456 30.36V33C61.8469 33.088 61.4656 33.132 61.2016 33.132C60.4389 33.132 59.8376 32.9413 59.3976 32.56C58.9869 32.1787 58.7669 31.6507 58.7376 30.976L58.6496 29.172C57.5936 30.5507 56.2589 31.6067 54.6456 32.34C53.0616 33.0733 51.3456 33.44 49.4976 33.44ZM50.2016 31.152C51.7563 31.152 53.1789 30.8587 54.4696 30.272C55.7896 29.6853 56.7869 28.908 57.4616 27.94C57.7256 27.676 57.9163 27.3973 58.0336 27.104C58.1803 26.7813 58.2536 26.488 58.2536 26.224V22.484C57.2563 22.1027 56.2149 21.8093 55.1296 21.604C54.0736 21.3987 52.9883 21.296 51.8736 21.296C49.7616 21.296 48.0456 21.736 46.7256 22.616C45.4056 23.496 44.7456 24.6547 44.7456 26.092C44.7456 26.796 44.8776 27.456 45.1416 28.072C45.4349 28.688 45.8163 29.2307 46.2856 29.7C46.7843 30.14 47.3709 30.492 48.0456 30.756C48.7203 31.02 49.4389 31.152 50.2016 31.152ZM79.1502 12.716C77.1262 12.7747 75.3662 13.332 73.8702 14.388C72.3742 15.444 71.3182 16.896 70.7022 18.744V33H67.7102V10.076H70.5262V15.576C71.3768 13.816 72.5208 12.4373 73.9582 11.44C75.3955 10.4427 76.9355 9.944 78.5782 9.944C78.8128 9.944 79.0035 9.95867 79.1502 9.988V12.716ZM100.889 33.44C99.0992 33.44 97.3539 33.1467 95.6526 32.56C93.9512 31.9733 92.4846 31.1227 91.2526 30.008L92.6166 27.984C93.9072 29.04 95.2126 29.832 96.5326 30.36C97.8819 30.888 99.3192 31.152 100.845 31.152C102.693 31.152 104.159 30.7853 105.245 30.052C106.359 29.2893 106.917 28.2187 106.917 26.84C106.917 26.1947 106.77 25.6667 106.477 25.256C106.183 24.816 105.743 24.4347 105.157 24.112C104.599 23.7893 103.881 23.5107 103.001 23.276C102.15 23.012 101.153 22.748 100.009 22.484C98.6886 22.1613 97.5446 21.8387 96.5766 21.516C95.6086 21.1933 94.8019 20.8267 94.1566 20.416C93.5406 20.0053 93.0712 19.5067 92.7486 18.92C92.4552 18.304 92.3086 17.5413 92.3086 16.632C92.3086 15.488 92.5286 14.476 92.9686 13.596C93.4379 12.716 94.0539 11.9973 94.8166 11.44C95.6086 10.8533 96.5179 10.4133 97.5446 10.12C98.6006 9.82667 99.7152 9.68 100.889 9.68C102.649 9.68 104.247 9.97333 105.685 10.56C107.122 11.1173 108.281 11.8653 109.161 12.804L107.709 14.564C106.858 13.684 105.817 13.024 104.585 12.584C103.382 12.144 102.121 11.924 100.801 11.924C100.009 11.924 99.2752 12.012 98.6006 12.188C97.9259 12.3347 97.3246 12.584 96.7966 12.936C96.2979 13.288 95.9019 13.7427 95.6086 14.3C95.3152 14.828 95.1686 15.4587 95.1686 16.192C95.1686 16.808 95.2712 17.3067 95.4766 17.688C95.6819 18.0693 96.0192 18.4067 96.4886 18.7C96.9579 18.964 97.5446 19.2133 98.2486 19.448C98.9819 19.6533 99.8619 19.8733 100.889 20.108C102.355 20.46 103.646 20.812 104.761 21.164C105.875 21.516 106.799 21.9267 107.533 22.396C108.295 22.8653 108.867 23.4373 109.249 24.112C109.63 24.7867 109.821 25.608 109.821 26.576C109.821 28.688 109.014 30.36 107.401 31.592C105.787 32.824 103.617 33.44 100.889 33.44ZM133.99 33H130.998V20.196C130.998 17.5853 130.543 15.6347 129.634 14.344C128.754 13.0533 127.449 12.408 125.718 12.408C124.867 12.408 124.017 12.584 123.166 12.936C122.345 13.2587 121.567 13.7133 120.834 14.3C120.101 14.8867 119.455 15.576 118.898 16.368C118.37 17.16 117.974 18.0253 117.71 18.964V33H114.718V0.879999H117.71V15.268C118.619 13.5373 119.881 12.1733 121.494 11.176C123.107 10.1787 124.853 9.68 126.73 9.68C128.05 9.68 129.165 9.92933 130.074 10.428C130.983 10.8973 131.731 11.572 132.318 12.452C132.905 13.3027 133.33 14.344 133.594 15.576C133.858 16.7787 133.99 18.1133 133.99 19.58V33ZM150.138 33.44C148.466 33.44 146.941 33.132 145.562 32.516C144.184 31.8707 142.981 31.0053 141.954 29.92C140.957 28.8347 140.18 27.5733 139.622 26.136C139.065 24.6987 138.786 23.188 138.786 21.604C138.786 19.9907 139.065 18.4653 139.622 17.028C140.209 15.5907 141.001 14.3293 141.998 13.244C143.025 12.1587 144.228 11.2933 145.606 10.648C146.985 10.0027 148.496 9.68 150.138 9.68C151.781 9.68 153.292 10.0027 154.67 10.648C156.078 11.2933 157.281 12.1587 158.278 13.244C159.305 14.3293 160.097 15.5907 160.654 17.028C161.241 18.4653 161.534 19.9907 161.534 21.604C161.534 23.188 161.256 24.6987 160.698 26.136C160.141 27.5733 159.349 28.8347 158.322 29.92C157.325 31.0053 156.122 31.8707 154.714 32.516C153.336 33.132 151.81 33.44 150.138 33.44ZM141.822 21.648C141.822 22.9387 142.042 24.1413 142.482 25.256C142.922 26.3413 143.509 27.3093 144.242 28.16C145.005 28.9813 145.885 29.6267 146.882 30.096C147.909 30.5653 148.994 30.8 150.138 30.8C151.282 30.8 152.353 30.5653 153.35 30.096C154.377 29.5973 155.272 28.9373 156.034 28.116C156.797 27.2653 157.398 26.2827 157.838 25.168C158.278 24.0533 158.498 22.8507 158.498 21.56C158.498 20.2987 158.278 19.1107 157.838 17.996C157.398 16.852 156.797 15.8693 156.034 15.048C155.272 14.1973 154.377 13.5373 153.35 13.068C152.353 12.5693 151.282 12.32 150.138 12.32C148.994 12.32 147.924 12.5693 146.926 13.068C145.929 13.5373 145.049 14.1973 144.286 15.048C143.524 15.8987 142.922 16.896 142.482 18.04C142.042 19.1547 141.822 20.3573 141.822 21.648ZM178.242 33.44C176.306 33.44 174.59 32.956 173.094 31.988C171.628 30.9907 170.44 29.744 169.53 28.248V42.372H166.538V10.076H169.222V14.52C170.161 13.0827 171.378 11.924 172.874 11.044C174.37 10.1347 175.998 9.68 177.758 9.68C179.342 9.68 180.794 10.0173 182.114 10.692C183.434 11.3373 184.578 12.2173 185.546 13.332C186.514 14.4173 187.262 15.6787 187.79 17.116C188.348 18.5533 188.626 20.0347 188.626 21.56C188.626 23.1733 188.377 24.6987 187.878 26.136C187.38 27.5733 186.661 28.8347 185.722 29.92C184.813 31.0053 183.713 31.8707 182.422 32.516C181.161 33.132 179.768 33.44 178.242 33.44ZM177.406 30.8C178.638 30.8 179.753 30.536 180.75 30.008C181.777 29.48 182.642 28.7907 183.346 27.94C184.08 27.06 184.637 26.0773 185.018 24.992C185.4 23.8773 185.59 22.7333 185.59 21.56C185.59 20.328 185.37 19.1547 184.93 18.04C184.49 16.9253 183.889 15.9427 183.126 15.092C182.364 14.2413 181.454 13.5667 180.398 13.068C179.372 12.5693 178.257 12.32 177.054 12.32C176.292 12.32 175.485 12.4813 174.634 12.804C173.813 13.0973 173.036 13.508 172.302 14.036C171.598 14.5347 170.982 15.136 170.454 15.84C169.956 16.5147 169.648 17.2333 169.53 17.996V25.036C169.882 25.8573 170.322 26.62 170.85 27.324C171.408 28.028 172.024 28.644 172.698 29.172C173.402 29.6707 174.15 30.0667 174.942 30.36C175.734 30.6533 176.556 30.8 177.406 30.8Z" fill="black"/>
<circle r="4" transform="matrix(1 0 0 -1 201 29)" fill="#6DCFED"/>
</svg>
