<svg width="21" height="20" viewBox="0 0 21 20" fill="none" xmlns="http://www.w3.org/2000/svg">
<path fill-rule="evenodd" clip-rule="evenodd" d="M20.73 7.41681C20.6262 7.09783 20.3442 6.89144 20.0118 6.89144L13.2184 6.87424L11.0763 0.518144C10.9694 0.20073 10.6897 -0.0127033 10.3519 0.000587462C10.0196 0.0044965 9.73912 0.212457 9.63918 0.532216L7.63345 6.87424L0.75787 6.89144C0.425519 6.89144 0.143523 7.09783 0.0397115 7.41603C-0.0648747 7.73501 0.0412609 8.0704 0.309312 8.26898L5.68969 12.2726L3.57938 19.0016C3.47866 19.3214 3.58712 19.6544 3.85672 19.8515C3.9923 19.95 4.14724 20 4.30218 20C4.45558 20 4.60819 19.9515 4.74067 19.8554L10.4131 15.8212L16.029 19.8522C16.2963 20.0493 16.6465 20.0485 16.9153 19.8515C17.1849 19.6552 17.2933 19.3222 17.1934 19.0024L15.08 12.2726L20.4596 8.26976C20.7276 8.0704 20.8338 7.73501 20.73 7.41681Z" fill="#BEBEBE"/>
<path d="M10.3519 0.000587462C10.6897 -0.0127033 10.9694 0.20073 11.0763 0.518144L8.84615 16.9231L4.74067 19.8554C4.60819 19.9515 4.45558 20 4.30218 20C4.14724 20 3.9923 19.95 3.85672 19.8515C3.58712 19.6544 3.47866 19.3214 3.57938 19.0016L5.68969 12.2726L0.309312 8.26898C0.0412609 8.0704 -0.0648747 7.73501 0.0397115 7.41603C0.143523 7.09783 0.425519 6.89144 0.75787 6.89144L7.63345 6.87424L9.63918 0.532216C9.73912 0.212457 10.0196 0.0044965 10.3519 0.000587462Z" fill="#6DCFED"/>
</svg>
