<svg width="20" height="20" viewBox="0 0 20 20" fill="none" xmlns="http://www.w3.org/2000/svg">
<path fill-rule="evenodd" clip-rule="evenodd" d="M19.9622 7.14211C19.8622 6.83495 19.5907 6.6362 19.2706 6.6362L12.7288 6.61964L10.666 0.498953C10.5631 0.193296 10.2938 -0.0122328 9.96851 0.000565704C9.64847 0.00432996 9.37841 0.204588 9.28217 0.512505L7.35073 6.61964L0.729801 6.6362C0.409759 6.6362 0.138207 6.83495 0.0382407 7.14136C-0.062472 7.44852 0.0397328 7.7715 0.297856 7.96272L5.47896 11.8181L3.44681 18.2979C3.34982 18.6058 3.45427 18.9265 3.71388 19.1162C3.84443 19.2111 3.99364 19.2593 4.14284 19.2593C4.29055 19.2593 4.43752 19.2126 4.56509 19.12L10.0274 15.2353L15.4353 19.117C15.6927 19.3067 16.0299 19.3059 16.2888 19.1162C16.5484 18.9273 16.6529 18.6065 16.5566 18.2986L14.5215 11.8181L19.7018 7.96348C19.96 7.7715 20.0622 7.44853 19.9622 7.14211Z" fill="#BEBEBE"/>
</svg>
